<svg width="197" height="101" viewBox="0 0 197 101" fill="none" xmlns="http://www.w3.org/2000/svg">
<path d="M6.30149 43.6364L13.5458 0H31.0174C34.2276 0 36.8271 0.475852 38.8157 1.42756C40.8185 2.37926 42.2177 3.70028 43.0131 5.39062C43.8086 7.06676 44.0217 8.99858 43.6523 11.1861C43.3541 12.8906 42.7504 14.3821 41.8413 15.6605C40.9464 16.9389 39.8384 17.9901 38.5174 18.8139C37.1964 19.6378 35.7617 20.2202 34.2134 20.5611L34.1282 20.9872C35.7759 21.0582 37.2603 21.527 38.5813 22.3935C39.9023 23.2457 40.8896 24.4531 41.543 26.0156C42.1964 27.5781 42.3455 29.4318 41.9904 31.5767C41.6069 33.892 40.6907 35.9588 39.2418 37.777C37.793 39.581 35.8612 41.0085 33.4464 42.0597C31.0458 43.1108 28.212 43.6364 24.945 43.6364H6.30149ZM16.8058 36.0938H24.3271C26.8839 36.0938 28.837 35.5966 30.1864 34.6023C31.5359 33.608 32.3455 32.294 32.6154 30.6605C32.8001 29.4531 32.6793 28.3878 32.2532 27.4645C31.8413 26.5412 31.1381 25.8168 30.1438 25.2912C29.1637 24.7656 27.9208 24.5028 26.4151 24.5028H18.7021L16.8058 36.0938ZM19.7674 18.2599H26.6069C27.8569 18.2599 29.0146 18.0398 30.0799 17.5994C31.1594 17.1449 32.0472 16.5057 32.7433 15.6818C33.4535 14.8438 33.9009 13.8565 34.0856 12.7202C34.3413 11.1293 33.9862 9.85795 33.0202 8.90625C32.0685 7.94034 30.5771 7.45739 28.5458 7.45739H21.5572L19.7674 18.2599Z" fill="#E9EB9C"/>
<path d="M62.4396 0L55.1953 43.6364H45.9695L53.2138 0H62.4396Z" fill="#E9EB9C"/>
<path d="M62.7859 43.6364L70.0302 0H87.2461C90.5415 0 93.2475 0.632102 95.364 1.89631C97.4947 3.14631 98.9862 4.88636 99.8384 7.11648C100.705 9.33239 100.904 11.8892 100.435 14.7869C99.9521 17.6989 98.9009 20.2628 97.2816 22.4787C95.6765 24.6804 93.5884 26.3991 91.0174 27.6349C88.4464 28.8707 85.4776 29.4886 82.1112 29.4886H71.1381L72.3526 22.0952H81.8342C83.6239 22.0952 85.1509 21.7898 86.4151 21.179C87.6935 20.554 88.7092 19.6946 89.462 18.6009C90.2148 17.4929 90.7049 16.2216 90.9322 14.7869C91.1737 13.3239 91.0955 12.0526 90.6978 10.973C90.3001 9.89347 89.5685 9.0554 88.5032 8.45881C87.4521 7.84801 86.0387 7.54261 84.2631 7.54261H78.0415L72.0117 43.6364H62.7859Z" fill="#E9EB9C"/>
<path d="M101.634 43.6364L108.878 0H126.349C129.56 0 132.159 0.475852 134.148 1.42756C136.151 2.37926 137.55 3.70028 138.345 5.39062C139.141 7.06676 139.354 8.99858 138.984 11.1861C138.686 12.8906 138.082 14.3821 137.173 15.6605C136.278 16.9389 135.17 17.9901 133.849 18.8139C132.528 19.6378 131.094 20.2202 129.545 20.5611L129.46 20.9872C131.108 21.0582 132.592 21.527 133.913 22.3935C135.234 23.2457 136.222 24.4531 136.875 26.0156C137.528 27.5781 137.678 29.4318 137.322 31.5767C136.939 33.892 136.023 35.9588 134.574 37.777C133.125 39.581 131.193 41.0085 128.778 42.0597C126.378 43.1108 123.544 43.6364 120.277 43.6364H101.634ZM112.138 36.0938H119.659C122.216 36.0938 124.169 35.5966 125.518 34.6023C126.868 33.608 127.678 32.294 127.947 30.6605C128.132 29.4531 128.011 28.3878 127.585 27.4645C127.173 26.5412 126.47 25.8168 125.476 25.2912C124.496 24.7656 123.253 24.5028 121.747 24.5028H114.034L112.138 36.0938ZM115.099 18.2599H121.939C123.189 18.2599 124.347 18.0398 125.412 17.5994C126.491 17.1449 127.379 16.5057 128.075 15.6818C128.786 14.8438 129.233 13.8565 129.418 12.7202C129.673 11.1293 129.318 9.85795 128.352 8.90625C127.401 7.94034 125.909 7.45739 123.878 7.45739H116.889L115.099 18.2599Z" fill="#E9EB9C"/>
<path d="M157.772 0L150.527 43.6364H141.301L148.546 0H157.772Z" fill="#E9EB9C"/>
<path d="M158.118 43.6364L165.362 0H182.578C185.874 0 188.58 0.632102 190.696 1.89631C192.827 3.14631 194.318 4.88636 195.17 7.11648C196.037 9.33239 196.236 11.8892 195.767 14.7869C195.284 17.6989 194.233 20.2628 192.614 22.4787C191.009 24.6804 188.92 26.3991 186.349 27.6349C183.778 28.8707 180.81 29.4886 177.443 29.4886H166.47L167.685 22.0952H177.166C178.956 22.0952 180.483 21.7898 181.747 21.179C183.026 20.554 184.041 19.6946 184.794 18.6009C185.547 17.4929 186.037 16.2216 186.264 14.7869C186.506 13.3239 186.428 12.0526 186.03 10.973C185.632 9.89347 184.901 9.0554 183.835 8.45881C182.784 7.84801 181.371 7.54261 179.595 7.54261H173.374L167.344 43.6364H158.118Z" fill="#E9EB9C"/>
<path d="M7.67045 68.0909H9.60227L11.2216 70.2216L11.6477 70.7898L14.0625 74H12.1307L10.5398 71.8693L10.142 71.3295L7.67045 68.0909ZM15.1989 65.4773C14.9432 66.9924 14.4531 68.3016 13.7287 69.4048C13.0043 70.5033 12.1188 71.3509 11.0724 71.9474C10.026 72.5393 8.89205 72.8352 7.67045 72.8352C6.41099 72.8352 5.33854 72.5275 4.45312 71.9119C3.57244 71.2917 2.94271 70.4157 2.56392 69.2841C2.18987 68.1477 2.13068 66.803 2.38636 65.25C2.64205 63.7348 3.1321 62.428 3.85653 61.3295C4.58097 60.2263 5.46875 59.3788 6.51989 58.7869C7.57102 58.1903 8.71212 57.892 9.94318 57.892C11.1932 57.892 12.2562 58.2022 13.1321 58.8224C14.0128 59.438 14.6402 60.3139 15.0142 61.4503C15.393 62.5819 15.4545 63.9242 15.1989 65.4773ZM13.5227 65.25C13.7311 64.0095 13.7003 62.9654 13.4304 62.1179C13.1605 61.2704 12.7131 60.6288 12.0881 60.1932C11.4631 59.7576 10.7197 59.5398 9.85795 59.5398C8.95833 59.5398 8.10606 59.7694 7.30114 60.2287C6.49621 60.6832 5.80729 61.3532 5.23438 62.2386C4.66146 63.1193 4.27083 64.1989 4.0625 65.4773C3.85417 66.7178 3.88494 67.7618 4.15483 68.6094C4.42472 69.4569 4.87216 70.0985 5.49716 70.5341C6.12216 70.9697 6.86553 71.1875 7.72727 71.1875C8.62689 71.1875 9.47917 70.9602 10.2841 70.5057C11.089 70.0464 11.7779 69.3764 12.3509 68.4957C12.9238 67.6103 13.3144 66.5284 13.5227 65.25Z" fill="#E9EB9C"/>
<path d="M24.6271 68.1761L25.7067 61.7273H27.3828L25.5646 72.6364H23.8885L24.201 70.7898H24.0874C23.7464 71.3437 23.2706 71.8149 22.6598 72.2031C22.049 72.5866 21.3317 72.7784 20.5078 72.7784C19.826 72.7784 19.2436 72.6293 18.7607 72.331C18.2824 72.0279 17.9415 71.5734 17.7379 70.9673C17.5391 70.3565 17.5154 69.5871 17.6669 68.6591L18.8317 61.7273H20.5078L19.3714 68.5455C19.2436 69.3409 19.3643 69.9754 19.7337 70.4489C20.103 70.9224 20.6357 71.1591 21.3317 71.1591C21.7483 71.1591 22.1887 71.0526 22.6527 70.8395C23.1214 70.6264 23.5381 70.2997 23.9027 69.8594C24.272 69.419 24.5135 68.858 24.6271 68.1761Z" fill="#E9EB9C"/>
<path d="M28.6346 72.6364L30.4528 61.7273H32.1289L30.3107 72.6364H28.6346ZM31.8022 59.8807C31.4755 59.8807 31.1938 59.7694 30.957 59.5469C30.725 59.3243 30.609 59.0568 30.609 58.7443C30.609 58.4318 30.725 58.1643 30.957 57.9418C31.1938 57.7192 31.4755 57.608 31.8022 57.608C32.1289 57.608 32.4083 57.7192 32.6403 57.9418C32.877 58.1643 32.9954 58.4318 32.9954 58.7443C32.9954 59.0568 32.877 59.3243 32.6403 59.5469C32.4083 59.7694 32.1289 59.8807 31.8022 59.8807Z" fill="#E9EB9C"/>
<path d="M37.7841 72.8636C36.7566 72.8636 35.9138 72.6222 35.2557 72.1392C34.6023 71.6563 34.1477 70.991 33.892 70.1435C33.6364 69.2959 33.5985 68.3277 33.7784 67.2386C33.9583 66.1307 34.3229 65.1529 34.8722 64.3054C35.4214 63.4531 36.1056 62.7879 36.9247 62.3097C37.7438 61.8267 38.6458 61.5852 39.6307 61.5852C40.3977 61.5852 41.0653 61.7273 41.6335 62.0114C42.2017 62.2955 42.6397 62.6932 42.9474 63.2045C43.2552 63.7159 43.3996 64.3125 43.3807 64.9943H41.7045C41.6572 64.4972 41.4441 64.0568 41.0653 63.6733C40.6913 63.285 40.1373 63.0909 39.4034 63.0909C38.75 63.0909 38.1487 63.2614 37.5994 63.6023C37.0502 63.9384 36.5885 64.4143 36.2145 65.0298C35.8404 65.6406 35.5871 66.358 35.4545 67.1818C35.3125 68.0246 35.3243 68.7585 35.4901 69.3835C35.6558 70.0085 35.9564 70.4938 36.392 70.8395C36.8277 71.1851 37.3769 71.358 38.0398 71.358C38.4754 71.358 38.8826 71.2822 39.2614 71.1307C39.6402 70.9792 39.9763 70.7614 40.2699 70.4773C40.5634 70.1932 40.7955 69.8523 40.9659 69.4545H42.642C42.4337 70.0985 42.0999 70.6785 41.6406 71.1946C41.1813 71.706 40.625 72.1132 39.9716 72.4162C39.3182 72.7145 38.589 72.8636 37.7841 72.8636Z" fill="#E9EB9C"/>
<path d="M46.7685 68.6591L47.081 66.5852H47.4219L53.0185 61.7273H55.0923L49.1548 66.8693H49.0128L46.7685 68.6591ZM44.5526 72.6364L46.9673 58.0909H48.6435L46.2287 72.6364H44.5526ZM51.4844 72.6364L48.1321 67.2386L49.4957 66.0739L53.6151 72.6364H51.4844Z" fill="#E9EB9C"/>
<path d="M67.0508 72.892C66.3595 72.892 65.7534 72.7618 65.2326 72.5014C64.7118 72.2363 64.3259 71.8551 64.0749 71.358C63.824 70.8561 63.7553 70.25 63.869 69.5398C63.9779 68.9148 64.1886 68.4081 64.5011 68.0199C64.8136 67.6269 65.1924 67.3191 65.6374 67.0966C66.0872 66.8693 66.5702 66.7012 67.0863 66.5923C67.6071 66.4787 68.1256 66.3911 68.6417 66.3295C69.314 66.2443 69.8609 66.178 70.2823 66.1307C70.7037 66.0833 71.0209 66.0052 71.234 65.8963C71.4471 65.7874 71.5773 65.6004 71.6246 65.3352V65.2784C71.7383 64.5824 71.646 64.0402 71.3477 63.652C71.0494 63.259 70.5167 63.0625 69.7496 63.0625C68.9542 63.0625 68.2889 63.2377 67.7539 63.5881C67.2189 63.9384 66.8235 64.3125 66.5678 64.7102L65.0906 64.142C65.4788 63.4792 65.9428 62.9631 66.4826 62.5938C67.0224 62.2197 67.5882 61.9593 68.18 61.8125C68.7719 61.661 69.3425 61.5852 69.8917 61.5852C70.2421 61.5852 70.6374 61.6278 71.0778 61.7131C71.5181 61.7936 71.93 61.9616 72.3136 62.2173C72.7018 62.473 72.993 62.8589 73.1871 63.375C73.386 63.8911 73.4144 64.5824 73.2724 65.4489L72.0792 72.6364H70.4031L70.6587 71.1591H70.5735C70.422 71.3958 70.19 71.6492 69.8775 71.919C69.5697 72.1889 69.1791 72.4186 68.7056 72.608C68.2369 72.7973 67.6853 72.892 67.0508 72.892ZM67.5337 71.3864C68.1966 71.3864 68.7766 71.2562 69.2738 70.9957C69.7757 70.7353 70.1781 70.3992 70.4812 69.9872C70.7889 69.5753 70.9807 69.142 71.0565 68.6875L71.3121 67.1534C71.2269 67.2386 71.0588 67.3168 70.8079 67.3878C70.5569 67.4541 70.2728 67.5133 69.9556 67.5653C69.6431 67.6127 69.3377 67.6553 69.0394 67.6932C68.7459 67.7263 68.5091 67.7547 68.3292 67.7784C67.8841 67.8352 67.4603 67.9276 67.0579 68.0554C66.6602 68.1785 66.324 68.3655 66.0494 68.6165C65.7795 68.8627 65.6114 69.1989 65.5451 69.625C65.4457 70.2074 65.5853 70.6477 65.9641 70.946C66.3429 71.2396 66.8661 71.3864 67.5337 71.3864Z" fill="#E9EB9C"/>
<path d="M77.8942 66.0739L76.8146 72.6364H75.1385L76.9567 61.7273H78.576L78.2919 63.4318H78.434C78.7749 62.8778 79.2365 62.4328 79.8189 62.0966C80.4013 61.7557 81.1044 61.5852 81.9283 61.5852C82.6574 61.5852 83.273 61.7367 83.7749 62.0398C84.2815 62.3381 84.639 62.7926 84.8473 63.4034C85.0604 64.0095 85.0911 64.7765 84.9396 65.7045L83.7749 72.6364H82.0987L83.2351 65.8182C83.3771 64.9659 83.2659 64.2983 82.9013 63.8153C82.5414 63.3324 81.9709 63.0909 81.1896 63.0909C80.6499 63.0909 80.1503 63.2069 79.691 63.4389C79.2365 63.6709 78.8506 64.0095 78.5334 64.4545C78.2209 64.8996 78.0078 65.4394 77.8942 66.0739Z" fill="#E9EB9C"/>
<path d="M90.9428 72.8636C90.029 72.8636 89.262 72.634 88.6417 72.1747C88.0214 71.7107 87.5834 71.0573 87.3278 70.2145C87.0768 69.367 87.046 68.3655 87.2354 67.2102C87.4296 66.0644 87.7918 65.0701 88.3221 64.2273C88.8571 63.3845 89.5129 62.7334 90.2894 62.2741C91.0659 61.8149 91.9135 61.5852 92.832 61.5852C93.5423 61.5852 94.0844 61.7036 94.4585 61.9403C94.8372 62.1723 95.1119 62.4375 95.2823 62.7358C95.4528 63.0294 95.583 63.2708 95.6729 63.4602H95.815L96.7099 58.0909H98.386L95.9712 72.6364H94.3519L94.636 70.9602H94.4371C94.2809 71.1591 94.0631 71.41 93.7837 71.7131C93.5044 72.0114 93.1351 72.2789 92.6758 72.5156C92.2212 72.7476 91.6436 72.8636 90.9428 72.8636ZM91.3548 71.358C92.0271 71.358 92.6284 71.1828 93.1587 70.8324C93.6938 70.4773 94.1389 69.9872 94.494 69.3622C94.8491 68.7325 95.0953 68.0057 95.2326 67.1818C95.3699 66.3674 95.3652 65.6548 95.2184 65.044C95.0716 64.4285 94.7899 63.9503 94.3732 63.6094C93.9566 63.2637 93.4049 63.0909 92.7184 63.0909C92.0129 63.0909 91.3997 63.2732 90.8789 63.6378C90.3581 63.9976 89.9343 64.4877 89.6076 65.108C89.2809 65.7235 89.0536 66.4148 88.9258 67.1818C88.7979 67.9583 88.7956 68.6638 88.9187 69.2983C89.0418 69.928 89.3022 70.4299 89.6999 70.804C90.1024 71.1733 90.654 71.358 91.3548 71.358Z" fill="#E9EB9C"/>
<path d="M110.453 66.0739L109.373 72.6364H107.697L109.515 61.7273H111.135L110.85 63.4318H110.993C111.333 62.8778 111.795 62.4328 112.377 62.0966C112.96 61.7557 113.663 61.5852 114.487 61.5852C115.216 61.5852 115.832 61.7367 116.333 62.0398C116.84 62.3381 117.198 62.7926 117.406 63.4034C117.619 64.0095 117.65 64.7765 117.498 65.7045L116.333 72.6364H114.657L115.794 65.8182C115.936 64.9659 115.824 64.2983 115.46 63.8153C115.1 63.3324 114.529 63.0909 113.748 63.0909C113.208 63.0909 112.709 63.2069 112.25 63.4389C111.795 63.6709 111.409 64.0095 111.092 64.4545C110.779 64.8996 110.566 65.4394 110.453 66.0739Z" fill="#E9EB9C"/>
<path d="M123.899 72.8636C122.895 72.8636 122.055 72.6245 121.378 72.1463C120.701 71.6681 120.223 70.9981 119.943 70.1364C119.669 69.2746 119.624 68.2708 119.808 67.125C119.988 66.0076 120.346 65.0346 120.881 64.206C121.42 63.3726 122.09 62.7287 122.891 62.2741C123.696 61.8149 124.581 61.5852 125.547 61.5852C126.551 61.5852 127.389 61.8267 128.061 62.3097C128.738 62.7879 129.216 63.4602 129.496 64.3267C129.775 65.1884 129.822 66.197 129.638 67.3523C129.458 68.4602 129.096 69.4285 128.551 70.2571C128.011 71.081 127.341 71.7225 126.541 72.1818C125.746 72.6364 124.865 72.8636 123.899 72.8636ZM123.928 71.358C124.695 71.358 125.36 71.1615 125.923 70.7685C126.491 70.3755 126.951 69.857 127.301 69.2131C127.656 68.5691 127.895 67.8731 128.018 67.125C128.132 66.4148 128.127 65.7543 128.004 65.1435C127.881 64.5279 127.618 64.0331 127.216 63.6591C126.813 63.2803 126.248 63.0909 125.518 63.0909C124.751 63.0909 124.081 63.2898 123.509 63.6875C122.94 64.0852 122.481 64.6084 122.131 65.2571C121.78 65.9058 121.546 66.6042 121.428 67.3523C121.314 68.0625 121.316 68.723 121.435 69.3338C121.558 69.9399 121.821 70.4299 122.223 70.804C122.63 71.1733 123.198 71.358 123.928 71.358Z" fill="#E9EB9C"/>
<path d="M137.892 61.7273L137.665 63.1477H132.012L132.239 61.7273H137.892ZM134.313 59.1136H135.989L134.256 69.5114C134.18 69.9849 134.192 70.34 134.292 70.5767C134.396 70.8087 134.552 70.965 134.76 71.0455C134.973 71.1212 135.203 71.1591 135.449 71.1591C135.634 71.1591 135.785 71.1496 135.904 71.1307C136.022 71.107 136.117 71.0881 136.188 71.0739L136.301 72.5795C136.174 72.6222 136.001 72.6648 135.783 72.7074C135.57 72.7547 135.307 72.7784 134.995 72.7784C134.521 72.7784 134.076 72.6766 133.659 72.473C133.243 72.2694 132.923 71.9593 132.701 71.5426C132.478 71.126 132.419 70.6004 132.523 69.9659L134.313 59.1136Z" fill="#E9EB9C"/>
<path d="M151.138 72.8636C150.224 72.8636 149.457 72.634 148.837 72.1747C148.217 71.7107 147.779 71.0573 147.523 70.2145C147.272 69.367 147.241 68.3655 147.431 67.2102C147.625 66.0644 147.987 65.0701 148.517 64.2273C149.052 63.3845 149.708 62.7334 150.485 62.2741C151.261 61.8149 152.109 61.5852 153.027 61.5852C153.738 61.5852 154.28 61.7036 154.654 61.9403C155.033 62.1723 155.307 62.4375 155.478 62.7358C155.648 63.0294 155.778 63.2708 155.868 63.4602H156.01L156.905 58.0909H158.581L156.167 72.6364H154.547L154.831 70.9602H154.632C154.476 71.1591 154.258 71.41 153.979 71.7131C153.7 72.0114 153.33 72.2789 152.871 72.5156C152.417 72.7476 151.839 72.8636 151.138 72.8636ZM151.55 71.358C152.222 71.358 152.824 71.1828 153.354 70.8324C153.889 70.4773 154.334 69.9872 154.689 69.3622C155.044 68.7325 155.291 68.0057 155.428 67.1818C155.565 66.3674 155.56 65.6548 155.414 65.044C155.267 64.4285 154.985 63.9503 154.569 63.6094C154.152 63.2637 153.6 63.0909 152.914 63.0909C152.208 63.0909 151.595 63.2732 151.074 63.6378C150.553 63.9976 150.13 64.4877 149.803 65.108C149.476 65.7235 149.249 66.4148 149.121 67.1818C148.993 67.9583 148.991 68.6638 149.114 69.2983C149.237 69.928 149.498 70.4299 149.895 70.804C150.298 71.1733 150.849 71.358 151.55 71.358Z" fill="#E9EB9C"/>
<path d="M159.455 72.6364L161.273 61.7273H162.949L161.131 72.6364H159.455ZM162.623 59.8807C162.296 59.8807 162.014 59.7694 161.777 59.5469C161.545 59.3243 161.429 59.0568 161.429 58.7443C161.429 58.4318 161.545 58.1643 161.777 57.9418C162.014 57.7192 162.296 57.608 162.623 57.608C162.949 57.608 163.229 57.7192 163.461 57.9418C163.697 58.1643 163.816 58.4318 163.816 58.7443C163.816 59.0568 163.697 59.3243 163.461 59.5469C163.229 59.7694 162.949 59.8807 162.623 59.8807Z" fill="#E9EB9C"/>
<path d="M164.201 72.6364L166.019 61.7273H167.638L167.354 63.375H167.468C167.752 62.8352 168.185 62.3973 168.768 62.0611C169.35 61.7249 169.968 61.5568 170.621 61.5568C170.749 61.5568 170.903 61.5592 171.083 61.5639C171.263 61.5639 171.403 61.571 171.502 61.5852L171.218 63.2898C171.161 63.2756 171.033 63.2543 170.835 63.2259C170.636 63.1927 170.423 63.1761 170.195 63.1761C169.665 63.1761 169.175 63.2874 168.725 63.5099C168.275 63.7277 167.899 64.0308 167.596 64.419C167.293 64.8026 167.099 65.2405 167.013 65.733L165.877 72.6364H164.201Z" fill="#E9EB9C"/>
<path d="M178.928 61.7273L178.7 63.1477H173.047L173.274 61.7273H178.928ZM175.348 59.1136H177.024L175.291 69.5114C175.215 69.9849 175.227 70.34 175.327 70.5767C175.431 70.8087 175.587 70.965 175.795 71.0455C176.009 71.1212 176.238 71.1591 176.484 71.1591C176.669 71.1591 176.821 71.1496 176.939 71.1307C177.057 71.107 177.152 71.0881 177.223 71.0739L177.337 72.5795C177.209 72.6222 177.036 72.6648 176.818 72.7074C176.605 72.7547 176.342 72.7784 176.03 72.7784C175.556 72.7784 175.111 72.6766 174.695 72.473C174.278 72.2694 173.958 71.9593 173.736 71.5426C173.513 71.126 173.454 70.6004 173.558 69.9659L175.348 59.1136Z" fill="#E9EB9C"/>
<path d="M180.043 76.7273C179.759 76.7273 179.508 76.7036 179.29 76.6562C179.077 76.6136 178.93 76.571 178.849 76.5284L179.531 75.0511C179.92 75.1553 180.265 75.1861 180.568 75.1435C180.876 75.1056 181.167 74.9564 181.442 74.696C181.721 74.4403 182.012 74.0379 182.315 73.4886L182.784 72.6364L180.597 61.7273H182.344L183.906 70.4489H184.02L188.48 61.7273H190.369L183.679 74.2131C183.366 74.7955 183.023 75.2713 182.649 75.6406C182.275 76.0099 181.87 76.2822 181.435 76.4574C180.999 76.6373 180.535 76.7273 180.043 76.7273Z" fill="#E9EB9C"/>
<path d="M1.5625 96.6364L0 82.0909H1.78977L2.86932 93.9375H3.01136L8.06818 82.0909H10.0568L11.1932 93.9375H11.3352L16.3352 82.0909H18.125L11.733 96.6364H9.91477L8.63636 85.0455H8.52273L3.38068 96.6364H1.5625Z" fill="#E9EB9C"/>
<path d="M21.1648 96.8636C20.161 96.8636 19.3205 96.6245 18.6435 96.1463C17.9664 95.6681 17.4882 94.9981 17.2088 94.1364C16.9342 93.2746 16.8892 92.2708 17.0739 91.125C17.2538 90.0076 17.6113 89.0346 18.1463 88.206C18.6861 87.3726 19.3561 86.7287 20.1562 86.2741C20.9612 85.8149 21.8466 85.5852 22.8125 85.5852C23.8163 85.5852 24.6544 85.8267 25.3267 86.3097C26.0038 86.7879 26.482 87.4602 26.7614 88.3267C27.0407 89.1884 27.0881 90.197 26.9034 91.3523C26.7235 92.4602 26.3613 93.4285 25.8168 94.2571C25.277 95.081 24.607 95.7225 23.8068 96.1818C23.0114 96.6364 22.1307 96.8636 21.1648 96.8636ZM21.1932 95.358C21.9602 95.358 22.6255 95.1615 23.1889 94.7685C23.7571 94.3755 24.2164 93.857 24.5668 93.2131C24.9219 92.5691 25.161 91.8731 25.2841 91.125C25.3977 90.4148 25.393 89.7543 25.2699 89.1435C25.1468 88.5279 24.884 88.0331 24.4815 87.6591C24.0791 87.2803 23.5133 87.0909 22.7841 87.0909C22.017 87.0909 21.3471 87.2898 20.7741 87.6875C20.206 88.0852 19.7467 88.6084 19.3963 89.2571C19.0459 89.9058 18.8116 90.6042 18.6932 91.3523C18.5795 92.0625 18.5819 92.723 18.7003 93.3338C18.8234 93.9399 19.0862 94.4299 19.4886 94.804C19.8958 95.1733 20.464 95.358 21.1932 95.358Z" fill="#E9EB9C"/>
<path d="M28.5955 96.6364L30.4137 85.7273H32.033L31.7489 87.375H31.8626C32.1467 86.8352 32.5799 86.3973 33.1623 86.0611C33.7447 85.7249 34.3626 85.5568 35.016 85.5568C35.1438 85.5568 35.2977 85.5592 35.4776 85.5639C35.6576 85.5639 35.7972 85.571 35.8967 85.5852L35.6126 87.2898C35.5558 87.2756 35.4279 87.2543 35.229 87.2259C35.0302 87.1927 34.8171 87.1761 34.5898 87.1761C34.0595 87.1761 33.5695 87.2874 33.1197 87.5099C32.6699 87.7277 32.2934 88.0308 31.9904 88.419C31.6874 88.8026 31.4933 89.2405 31.408 89.733L30.2717 96.6364H28.5955Z" fill="#E9EB9C"/>
<path d="M39.8491 96.8636C38.9352 96.8636 38.1682 96.634 37.5479 96.1747C36.9277 95.7107 36.4897 95.0573 36.234 94.2145C35.9831 93.367 35.9523 92.3655 36.1417 91.2102C36.3358 90.0644 36.698 89.0701 37.2283 88.2273C37.7634 87.3845 38.4192 86.7334 39.1957 86.2741C39.9722 85.8149 40.8197 85.5852 41.7383 85.5852C42.4485 85.5852 42.9906 85.7036 43.3647 85.9403C43.7435 86.1724 44.0181 86.4375 44.1886 86.7358C44.359 87.0294 44.4892 87.2708 44.5792 87.4602H44.7212L45.6161 82.0909H47.2923L44.8775 96.6364H43.2582L43.5423 94.9602H43.3434C43.1871 95.1591 42.9693 95.41 42.69 95.7131C42.4106 96.0114 42.0413 96.2789 41.582 96.5156C41.1275 96.7476 40.5498 96.8636 39.8491 96.8636ZM40.261 95.358C40.9334 95.358 41.5347 95.1828 42.065 94.8324C42.6 94.4773 43.0451 93.9872 43.4002 93.3622C43.7553 92.7325 44.0015 92.0057 44.1389 91.1818C44.2762 90.3674 44.2714 89.6548 44.1246 89.044C43.9779 88.4285 43.6961 87.9503 43.2795 87.6094C42.8628 87.2637 42.3112 87.0909 41.6246 87.0909C40.9192 87.0909 40.306 87.2732 39.7852 87.6378C39.2643 87.9976 38.8406 88.4877 38.5139 89.108C38.1871 89.7235 37.9599 90.4148 37.832 91.1818C37.7042 91.9583 37.7018 92.6638 37.8249 93.2983C37.948 93.928 38.2085 94.4299 38.6062 94.804C39.0086 95.1733 39.5603 95.358 40.261 95.358Z" fill="#E9EB9C"/>
<path d="M48.3931 96.6364L50.8079 82.0909H55.7227C56.859 82.0909 57.7563 82.2945 58.4144 82.7017C59.0773 83.1089 59.5247 83.6605 59.7567 84.3565C59.9935 85.0526 60.0408 85.8314 59.8988 86.6932C59.7567 87.5455 59.4513 88.322 58.9826 89.0227C58.5186 89.7235 57.8888 90.2822 57.0934 90.6989C56.3027 91.1155 55.3439 91.3239 54.217 91.3239H50.6942L50.9499 89.7614H54.4158C55.1924 89.7614 55.841 89.6264 56.3619 89.3565C56.8827 89.0867 57.2899 88.7197 57.5835 88.2557C57.877 87.7917 58.0711 87.2708 58.1658 86.6932C58.2605 86.1061 58.2369 85.5852 58.0948 85.1307C57.9575 84.6714 57.671 84.3116 57.2354 84.0511C56.8046 83.786 56.1961 83.6534 55.4102 83.6534H52.3136L50.1545 96.6364H48.3931Z" fill="#E9EB9C"/>
<path d="M60.8416 96.6364L62.6598 85.7273H64.2791L63.995 87.375H64.1087C64.3928 86.8352 64.826 86.3973 65.4084 86.0611C65.9908 85.7249 66.6087 85.5568 67.2621 85.5568C67.3899 85.5568 67.5438 85.5592 67.7237 85.5639C67.9036 85.5639 68.0433 85.571 68.1428 85.5852L67.8587 87.2898C67.8018 87.2756 67.674 87.2543 67.4751 87.2259C67.2763 87.1927 67.0632 87.1761 66.8359 87.1761C66.3056 87.1761 65.8156 87.2874 65.3658 87.5099C64.916 87.7277 64.5395 88.0308 64.2365 88.419C63.9335 88.8026 63.7393 89.2405 63.6541 89.733L62.5178 96.6364H60.8416Z" fill="#E9EB9C"/>
<path d="M72.5355 96.8636C71.4891 96.8636 70.625 96.6316 69.9432 96.1676C69.2614 95.6989 68.7855 95.0455 68.5156 94.2074C68.2457 93.3646 68.2031 92.3845 68.3878 91.267C68.5724 90.1496 68.9394 89.1648 69.4886 88.3125C70.0379 87.4555 70.7221 86.7879 71.5412 86.3097C72.3603 85.8267 73.2599 85.5852 74.2401 85.5852C74.8082 85.5852 75.3551 85.6799 75.8807 85.8693C76.4063 86.0587 76.8608 86.3665 77.2443 86.7926C77.6278 87.214 77.8954 87.7727 78.0469 88.4688C78.1984 89.1648 78.1889 90.0218 78.0185 91.0398L77.9048 91.75H69.4957L69.723 90.3011H76.4276C76.5365 89.6856 76.5081 89.1364 76.3423 88.6534C76.1813 88.1705 75.8996 87.7893 75.4972 87.5099C75.0994 87.2306 74.5952 87.0909 73.9844 87.0909C73.3546 87.0909 72.7675 87.2614 72.223 87.6023C71.6785 87.9384 71.224 88.3646 70.8594 88.8807C70.4948 89.392 70.2675 89.9129 70.1776 90.4432L69.9787 91.6932C69.8366 92.5975 69.858 93.3172 70.0426 93.8523C70.232 94.3873 70.5611 94.7732 71.0298 95.0099C71.4986 95.2419 72.0857 95.358 72.7912 95.358C73.241 95.358 73.6553 95.2964 74.0341 95.1733C74.4129 95.0455 74.7514 94.8561 75.0497 94.6051C75.348 94.3494 75.599 94.0322 75.8026 93.6534L77.3366 94.108C77.0762 94.6572 76.7093 95.1401 76.2358 95.5568C75.767 95.9687 75.2178 96.2907 74.5881 96.5227C73.9631 96.75 73.2789 96.8636 72.5355 96.8636Z" fill="#E9EB9C"/>
<path d="M88.8175 88.1705L87.2266 88.5966C87.1697 88.3409 87.0703 88.0947 86.9283 87.858C86.791 87.6165 86.5779 87.42 86.2891 87.2685C86.005 87.1122 85.6167 87.0341 85.1243 87.0341C84.4567 87.0341 83.8767 87.188 83.3842 87.4957C82.8918 87.7988 82.6101 88.1847 82.5391 88.6534C82.468 89.0653 82.5627 89.3944 82.8232 89.6406C83.0836 89.8868 83.5192 90.0881 84.13 90.2443L85.6925 90.642C86.63 90.8835 87.2976 91.2457 87.6953 91.7287C88.0978 92.2069 88.2351 92.8296 88.1072 93.5966C88.0031 94.2216 87.7308 94.7803 87.2905 95.2727C86.8501 95.7652 86.2867 96.1534 85.6001 96.4375C84.9136 96.7216 84.1489 96.8636 83.3061 96.8636C82.1839 96.8636 81.2985 96.6222 80.6499 96.1392C80.0012 95.6515 79.6555 94.946 79.6129 94.0227L81.2891 93.625C81.3317 94.2074 81.54 94.6477 81.9141 94.946C82.2929 95.2396 82.8232 95.3864 83.505 95.3864C84.2862 95.3864 84.9373 95.2206 85.4581 94.8892C85.9789 94.553 86.2749 94.1506 86.3459 93.6818C86.4169 93.2983 86.3411 92.9787 86.1186 92.723C85.9008 92.4673 85.522 92.2756 84.9822 92.1477L83.2493 91.7216C82.2834 91.4801 81.6063 91.1108 81.218 90.6136C80.8345 90.1165 80.7067 89.4915 80.8345 88.7386C80.9387 88.1231 81.2038 87.5786 81.63 87.1051C82.0608 86.6316 82.6006 86.2599 83.2493 85.9901C83.9027 85.7202 84.6129 85.5852 85.38 85.5852C86.4595 85.5852 87.2668 85.822 87.8018 86.2955C88.3369 86.7642 88.6754 87.3892 88.8175 88.1705Z" fill="#E9EB9C"/>
<path d="M99.2667 88.1705L97.6758 88.5966C97.619 88.3409 97.5195 88.0947 97.3775 87.858C97.2402 87.6165 97.0271 87.42 96.7383 87.2685C96.4542 87.1122 96.0659 87.0341 95.5735 87.0341C94.9059 87.0341 94.3259 87.188 93.8335 87.4957C93.341 87.7988 93.0593 88.1847 92.9883 88.6534C92.9173 89.0653 93.012 89.3944 93.2724 89.6406C93.5328 89.8868 93.9684 90.0881 94.5792 90.2443L96.1417 90.642C97.0792 90.8835 97.7468 91.2457 98.1445 91.7287C98.547 92.2069 98.6843 92.8296 98.5565 93.5966C98.4523 94.2216 98.18 94.7803 97.7397 95.2727C97.2994 95.7652 96.7359 96.1534 96.0494 96.4375C95.3628 96.7216 94.5981 96.8636 93.7553 96.8636C92.6332 96.8636 91.7477 96.6222 91.0991 96.1392C90.4504 95.6515 90.1048 94.946 90.0621 94.0227L91.7383 93.625C91.7809 94.2074 91.9892 94.6477 92.3633 94.946C92.7421 95.2396 93.2724 95.3864 93.9542 95.3864C94.7354 95.3864 95.3865 95.2206 95.9073 94.8892C96.4282 94.553 96.7241 94.1506 96.7951 93.6818C96.8661 93.2983 96.7904 92.9787 96.5678 92.723C96.35 92.4673 95.9712 92.2756 95.4315 92.1477L93.6985 91.7216C92.7326 91.4801 92.0555 91.1108 91.6673 90.6136C91.2837 90.1165 91.1559 89.4915 91.2837 88.7386C91.3879 88.1231 91.6531 87.5786 92.0792 87.1051C92.5101 86.6316 93.0498 86.2599 93.6985 85.9901C94.3519 85.7202 95.0621 85.5852 95.8292 85.5852C96.9087 85.5852 97.716 85.822 98.2511 86.2955C98.7861 86.7642 99.1246 87.3892 99.2667 88.1705Z" fill="#E9EB9C"/>
<path d="M107.784 83.6534L108.04 82.0909H118.949L118.693 83.6534H114.119L111.96 96.6364H110.199L112.358 83.6534H107.784Z" fill="#E9EB9C"/>
<path d="M121.781 90.0739L120.701 96.6364H119.025L121.44 82.0909H123.116L122.235 87.4318H122.377C122.718 86.8636 123.173 86.4138 123.741 86.0824C124.314 85.751 125.034 85.5852 125.9 85.5852C126.639 85.5852 127.261 85.7344 127.768 86.0327C128.279 86.3262 128.639 86.7784 128.848 87.3892C129.061 87.9953 129.092 88.767 128.94 89.7045L127.775 96.6364H126.099L127.235 89.8182C127.377 88.9517 127.261 88.2817 126.887 87.8082C126.518 87.33 125.943 87.0909 125.162 87.0909C124.612 87.0909 124.101 87.2069 123.627 87.4389C123.159 87.6709 122.761 88.0095 122.434 88.4545C122.112 88.8996 121.895 89.4394 121.781 90.0739Z" fill="#E9EB9C"/>
<path d="M135.387 96.8636C134.341 96.8636 133.477 96.6316 132.795 96.1676C132.113 95.6989 131.637 95.0455 131.367 94.2074C131.097 93.3646 131.055 92.3845 131.239 91.267C131.424 90.1496 131.791 89.1648 132.34 88.3125C132.889 87.4555 133.574 86.7879 134.393 86.3097C135.212 85.8267 136.112 85.5852 137.092 85.5852C137.66 85.5852 138.207 85.6799 138.732 85.8693C139.258 86.0587 139.712 86.3665 140.096 86.7926C140.479 87.214 140.747 87.7727 140.898 88.4688C141.05 89.1648 141.04 90.0218 140.87 91.0398L140.756 91.75H132.347L132.575 90.3011H139.279C139.388 89.6856 139.36 89.1364 139.194 88.6534C139.033 88.1705 138.751 87.7893 138.349 87.5099C137.951 87.2306 137.447 87.0909 136.836 87.0909C136.206 87.0909 135.619 87.2614 135.075 87.6023C134.53 87.9384 134.076 88.3646 133.711 88.8807C133.346 89.392 133.119 89.9129 133.029 90.4432L132.83 91.6932C132.688 92.5975 132.71 93.3172 132.894 93.8523C133.084 94.3873 133.413 94.7732 133.881 95.0099C134.35 95.2419 134.937 95.358 135.643 95.358C136.093 95.358 136.507 95.2964 136.886 95.1733C137.264 95.0455 137.603 94.8561 137.901 94.6051C138.2 94.3494 138.451 94.0322 138.654 93.6534L140.188 94.108C139.928 94.6572 139.561 95.1401 139.087 95.5568C138.619 95.9687 138.069 96.2907 137.44 96.5227C136.815 96.75 136.13 96.8636 135.387 96.8636Z" fill="#E9EB9C"/>
<path d="M142.521 96.6364L144.339 85.7273H145.959L145.675 87.4318H145.817C146.143 86.8494 146.586 86.3973 147.145 86.0753C147.708 85.7486 148.345 85.5852 149.055 85.5852C149.766 85.5852 150.336 85.7486 150.767 86.0753C151.198 86.3973 151.499 86.8494 151.669 87.4318H151.783C152.152 86.8636 152.644 86.4138 153.26 86.0824C153.88 85.751 154.581 85.5852 155.362 85.5852C156.328 85.5852 157.071 85.8906 157.592 86.5014C158.118 87.1122 158.274 88.0568 158.061 89.3352L156.839 96.6364H155.163L156.385 89.3352C156.513 88.5256 156.385 87.9503 156.001 87.6094C155.623 87.2637 155.135 87.0909 154.538 87.0909C153.771 87.0909 153.139 87.3206 152.642 87.7798C152.145 88.2391 151.839 88.8239 151.726 89.5341L150.533 96.6364H148.828L150.078 89.1648C150.178 88.5398 150.059 88.0379 149.723 87.6591C149.387 87.2803 148.899 87.0909 148.26 87.0909C147.824 87.0909 147.398 87.2093 146.982 87.446C146.565 87.678 146.207 88 145.909 88.4119C145.611 88.8191 145.419 89.2879 145.334 89.8182L144.197 96.6364H142.521Z" fill="#E9EB9C"/>
<path d="M159.904 96.6364L161.722 85.7273H163.398L161.58 96.6364H159.904ZM163.072 83.8807C162.745 83.8807 162.463 83.7694 162.227 83.5469C161.995 83.3243 161.879 83.0568 161.879 82.7443C161.879 82.4318 161.995 82.1643 162.227 81.9418C162.463 81.7192 162.745 81.608 163.072 81.608C163.398 81.608 163.678 81.7192 163.91 81.9418C164.147 82.1643 164.265 82.4318 164.265 82.7443C164.265 83.0568 164.147 83.3243 163.91 83.5469C163.678 83.7694 163.398 83.8807 163.072 83.8807Z" fill="#E9EB9C"/>
<path d="M167.406 90.0739L166.326 96.6364H164.65L166.468 85.7273H168.088L167.804 87.4318H167.946C168.287 86.8778 168.748 86.4328 169.331 86.0966C169.913 85.7557 170.616 85.5852 171.44 85.5852C172.169 85.5852 172.785 85.7367 173.287 86.0398C173.793 86.3381 174.151 86.7926 174.359 87.4034C174.572 88.0095 174.603 88.7765 174.451 89.7045L173.287 96.6364H171.61L172.747 89.8182C172.889 88.9659 172.778 88.2983 172.413 87.8153C172.053 87.3324 171.483 87.0909 170.701 87.0909C170.162 87.0909 169.662 87.2069 169.203 87.4389C168.748 87.6709 168.362 88.0095 168.045 88.4545C167.733 88.8996 167.52 89.4394 167.406 90.0739Z" fill="#E9EB9C"/>
<path d="M180.071 100.955C179.257 100.955 178.575 100.85 178.026 100.642C177.476 100.438 177.036 100.169 176.705 99.8324C176.373 99.501 176.122 99.1458 175.952 98.767L177.457 97.8295C177.571 98.0284 177.718 98.2557 177.898 98.5114C178.078 98.7718 178.35 98.9967 178.714 99.1861C179.084 99.3802 179.602 99.4773 180.27 99.4773C181.146 99.4773 181.913 99.2642 182.571 98.8381C183.229 98.4119 183.636 97.7443 183.793 96.8352L184.134 94.6193H183.991C183.84 94.8182 183.629 95.0644 183.359 95.358C183.089 95.6468 182.727 95.9048 182.273 96.1321C181.818 96.3546 181.236 96.4659 180.526 96.4659C179.64 96.4659 178.883 96.2576 178.253 95.8409C177.623 95.4242 177.171 94.8182 176.896 94.0227C176.626 93.2273 176.586 92.2614 176.776 91.125C176.96 90.0076 177.315 89.0346 177.841 88.206C178.371 87.3726 179.025 86.7287 179.801 86.2741C180.578 85.8149 181.425 85.5852 182.344 85.5852C183.054 85.5852 183.598 85.7036 183.977 85.9403C184.361 86.1724 184.64 86.4375 184.815 86.7358C184.991 87.0294 185.123 87.2708 185.213 87.4602H185.384L185.668 85.7273H187.287L185.44 96.9489C185.284 97.8864 184.946 98.6487 184.425 99.2358C183.904 99.8277 183.265 100.261 182.507 100.536C181.75 100.815 180.938 100.955 180.071 100.955ZM180.952 94.9602C181.619 94.9602 182.214 94.8063 182.734 94.4986C183.26 94.1908 183.696 93.7481 184.041 93.1705C184.387 92.5928 184.626 91.9015 184.759 91.0966C184.891 90.3106 184.882 89.617 184.73 89.0156C184.579 88.4143 184.292 87.9432 183.871 87.6023C183.454 87.2614 182.907 87.0909 182.23 87.0909C181.515 87.0909 180.897 87.2708 180.376 87.6307C179.86 87.9905 179.441 88.4735 179.119 89.0795C178.797 89.6856 178.575 90.358 178.452 91.0966C178.329 91.8542 178.333 92.5242 178.466 93.1065C178.598 93.6842 178.868 94.1387 179.276 94.4702C179.688 94.7969 180.246 94.9602 180.952 94.9602Z" fill="#E9EB9C"/>
</svg>
